<svg xmlns="http://www.w3.org/2000/svg" width="100" height="100" viewBox="0 0 100 100">
  <path fill="#FFF" fill-rule="evenodd" d="M44.3484375,32.9318875 C43.7625,32.6897045 43.090625,32.8225145 42.6453125,33.2709437 L33.728125,42.1879652 L25,42.1879652 C23.275,42.1879652 21.875,43.5863767 21.875,45.3129071 L21.875,54.6877326 C21.875,56.4127005 23.275,57.8126745 25,57.8126745 L33.728125,57.8126745 L42.6453125,66.729696 C42.9453125,67.028128 43.34375,67.1875 43.75,67.1875 C43.9515625,67.1875 44.1546875,67.1484382 44.3484375,67.0687522 C44.93125,66.8265692 45.3125,66.2562673 45.3125,65.6250291 L45.3125,34.3756106 C45.3125,33.7443724 44.93125,33.1740705 44.3484375,32.9318875 M69.3347483,24.1813255 C75.0849835,31.1550157 78.125,39.5422703 78.125,48.4384718 C78.125,57.3330778 75.0849835,65.7219278 69.3347483,72.6940226 C68.9314809,73.1838242 68.3388246,73.4375 67.742903,73.4375 C67.293921,73.4375 66.840041,73.2939099 66.4645287,72.9955617 C65.5861566,72.304734 65.449013,71.0491188 66.154323,70.1923648 C71.3151672,63.9350294 74.0433453,56.4125061 74.0433453,48.4384718 C74.0433453,40.4628421 71.3151672,32.9403187 66.154323,26.6829833 C65.449013,25.8262293 65.5861566,24.5706141 66.4645287,23.8797864 C67.3380028,23.1873632 68.6261731,23.3229761 69.3347483,24.1813255 Z M62.9804282,30.4841311 C67.0131031,35.7203817 69.1437269,41.9298538 69.1437269,48.4376741 C69.1437269,54.9454943 67.0131031,61.1549664 62.9804282,66.391217 C62.5787934,66.9129275 61.9681779,67.1873441 61.3477663,67.1873441 C60.9200089,67.1873441 60.4906188,67.0565176 60.1216373,66.7868874 C59.2220406,66.1247777 59.0408151,64.8739488 59.7183698,63.9948586 C63.2155316,59.4526266 65.0620722,54.0743814 65.0620722,48.4376741 C65.0620722,42.8009668 63.2155316,37.4227215 59.7183698,32.882085 C59.0408151,32.0013993 59.2220406,30.7505704 60.1216373,30.0884607 C61.0244993,29.426351 62.3012409,29.6034454 62.9804282,30.4841311 Z M56.8692115,36.6248395 C59.2561632,40.1571548 60.5165782,44.2414941 60.5165782,48.4375145 C60.5165782,52.6335349 59.2561632,56.7178742 56.8692115,60.2501895 C56.4773726,60.8309315 55.8259405,61.1452342 55.1647125,61.1452342 C54.7794043,61.1452342 54.3875654,61.0383394 54.0430737,60.8149771 C53.1010278,60.208708 52.8414346,58.9706426 53.4634788,58.0516663 C55.4063464,55.1734834 56.4349234,51.8501714 56.4349234,48.4375145 C56.4349234,45.0248576 55.4063464,41.7015456 53.4634788,38.8233627 C52.8414346,37.9043864 53.1010278,36.6679165 54.0430737,36.0600519 C54.983487,35.4537828 56.2488,35.7074586 56.8692115,36.6248395 Z"/>
</svg>
